<svg xmlns="http://www.w3.org/2000/svg" width="15.036" height="18.775" viewBox="0 0 15.036 18.775">
  <g id="AOIxdP.tif" transform="translate(-483.871 -669.044)">
    <g id="Сгруппировать_102" data-name="Сгруппировать 102" transform="translate(483.871 669.044)">
      <path id="Контур_9674" data-name="Контур 9674" d="M483.882,677.2q0-3.418,0-6.837a1.227,1.227,0,0,1,1.316-1.319q4.952,0,9.9,0a1.239,1.239,0,0,1,1.3,1.3c0,.338.006.677,0,1.016,0,.147.053.193.195.189.345-.007.69,0,1.035,0a1.237,1.237,0,0,1,1.273,1.269q0,2.315,0,4.629,0,4.551,0,9.1a1.231,1.231,0,0,1-.74,1.165,1.014,1.014,0,0,1-.471.108q-5.02,0-10.04,0a1.232,1.232,0,0,1-1.273-1.287c0-.325-.011-.651,0-.976.009-.194-.065-.247-.248-.24-.305.012-.614-.018-.917.007a1.3,1.3,0,0,1-1.348-1.344c.026-2.259.009-4.519.009-6.778Zm1.271-.019q0,3.2,0,6.407c0,.346.109.458.454.458h9.043c.39,0,.48-.091.48-.487q0-5.781,0-11.563c0-.43,0-.859,0-1.289,0-.263-.123-.379-.385-.389-.065,0-.13,0-.2,0h-8.926c-.37,0-.471.1-.471.478Q485.153,673.989,485.153,677.182Zm12.48,2.508v-1.816q0-2.314,0-4.628c0-.312-.109-.42-.423-.427q-.205,0-.41,0c-.447.007-.393-.053-.393.4q0,5.409,0,10.819a1.229,1.229,0,0,1-1.277,1.283c-1.386,0-2.773,0-4.159,0-1.035,0-2.07,0-3.1,0-.163,0-.22.051-.211.212.011.195,0,.391,0,.586,0,.319.118.432.44.432h9.08c.351,0,.459-.106.459-.452Q497.634,682.892,497.633,679.69Z" transform="translate(-483.871 -669.045)" fill="#fff"/>
      <path id="Контур_9675" data-name="Контур 9675" d="M492.36,679.615q1.718,0,3.435,0c.105,0,.249-.039.284.1a.672.672,0,0,1-.019.476c-.049.094-.162.067-.251.067l-3.532,0q-1.7,0-3.4,0c-.106,0-.249.037-.285-.1a.67.67,0,0,1,.02-.476c.048-.094.162-.066.25-.066Z" transform="translate(-486.066 -673.988)" fill="#fff"/>
      <path id="Контур_9676" data-name="Контур 9676" d="M492.339,682.61h-3.474c-.1,0-.236.029-.267-.1a.642.642,0,0,1,.027-.491c.049-.082.154-.053.236-.053l4.508,0q1.22,0,2.44,0c.1,0,.235-.03.268.1a.615.615,0,0,1-.029.491c-.054.087-.167.056-.255.056q-1.727,0-3.455,0Z" transform="translate(-486.066 -675.087)" fill="#fff"/>
      <path id="Контур_9677" data-name="Контур 9677" d="M492.347,684.962q-1.737,0-3.474,0c-.264,0-.286-.027-.286-.316,0-.305.019-.331.292-.331h6.968c.228,0,.26.033.264.259,0,.046,0,.092,0,.137.016.184-.067.255-.252.253-.735-.005-1.47,0-2.205,0h-1.307Z" transform="translate(-486.077 -676.189)" fill="#fff"/>
      <path id="Контур_9678" data-name="Контур 9678" d="M492.336,686.663h3.474c.1,0,.237-.029.269.1a.634.634,0,0,1-.028.491c-.049.082-.153.055-.236.055q-2.107,0-4.215,0-1.366,0-2.732,0c-.1,0-.237.032-.268-.1a.642.642,0,0,1,.027-.491c.049-.082.154-.055.236-.055Z" transform="translate(-486.066 -677.286)" fill="#fff"/>
      <path id="Контур_9679" data-name="Контур 9679" d="M492.358,689.009q1.707,0,3.416,0c.106,0,.247-.041.3.087a.687.687,0,0,1,0,.477c-.037.1-.151.084-.24.084h-3.084q-1.912,0-3.825,0c-.112,0-.261.048-.316-.087a.669.669,0,0,1,0-.477c.042-.112.164-.083.26-.083h3.494Z" transform="translate(-486.065 -678.383)" fill="#fff"/>
      <path id="Контур_9680" data-name="Контур 9680" d="M492.359,691.362q1.718,0,3.435,0c.105,0,.249-.039.285.1a.674.674,0,0,1-.018.476c-.048.095-.161.067-.25.067l-2.713,0q-2.107,0-4.215,0c-.106,0-.249.037-.285-.1a.674.674,0,0,1,.019-.476c.047-.095.161-.067.25-.067Z" transform="translate(-486.066 -679.484)" fill="#fff"/>
      <path id="Контур_9681" data-name="Контур 9681" d="M494,675.564c-.546,0-1.092,0-1.638,0-.186,0-.264-.076-.251-.257,0-.013,0-.026,0-.039,0-.339.012-.355.346-.355l2.867,0c.117,0,.234,0,.351,0a.182.182,0,0,1,.209.216c0,.039,0,.078,0,.117,0,.293-.02.314-.305.314H494Z" transform="translate(-487.725 -671.792)" fill="#fff"/>
    </g>
  </g>
</svg>
