<svg xmlns="http://www.w3.org/2000/svg" width="17.155" height="15.173" viewBox="0 0 17.155 15.173">
  <g id="Сгруппировать_101" data-name="Сгруппировать 101" transform="translate(-952.743 -156.48)">
    <path id="Контур_9671" data-name="Контур 9671" d="M963.3,166.242h-4.4c-.227,0-.23,0-.176.224.1.394.2.785.288,1.181a.208.208,0,0,0,.245.2q3.27-.008,6.54,0c.5,0,.993,0,1.489,0a.554.554,0,1,1,0,1.105h-8.547a.578.578,0,0,1-.671-.534q-.788-3.2-1.574-6.391-.522-2.123-1.04-4.246a.212.212,0,0,0-.249-.195c-.641.009-1.282.006-1.923,0a.539.539,0,0,1-.534-.485.545.545,0,0,1,.4-.6.784.784,0,0,1,.182-.017q1.221,0,2.442,0a.546.546,0,0,1,.611.477c.123.486.25.97.357,1.459.039.175.1.233.288.232q6.122-.008,12.243-.006a.613.613,0,0,1,.424.118.565.565,0,0,1,.18.61q-.368,1.491-.737,2.981-.422,1.7-.844,3.407a.555.555,0,0,1-.609.481Zm-5.18-6.492c-.29,0-.58.006-.87,0-.137,0-.177.031-.14.174.156.6.3,1.211.451,1.818a.168.168,0,0,0,.2.153c.49-.006.981-.008,1.471,0,.161,0,.189-.065.171-.2-.078-.6-.156-1.194-.225-1.792-.014-.117-.056-.153-.167-.151C958.714,159.754,958.418,159.75,958.122,159.75Zm9.473,0c-.3,0-.591,0-.887,0-.113,0-.161.035-.167.152s-.029.234-.044.351c-.06.48-.118.96-.182,1.44-.018.14.014.2.173.2.49-.009.981-.007,1.472,0a.169.169,0,0,0,.194-.155c.147-.612.3-1.224.453-1.835.035-.134-.012-.156-.127-.154C968.187,159.754,967.891,159.751,967.6,159.75Zm-5.283,1.077h0c0-.3-.006-.6,0-.9,0-.138-.037-.187-.179-.185-.557.007-1.114.009-1.671,0-.162,0-.187.065-.17.2.079.6.157,1.2.227,1.807.014.116.066.135.163.135.49,0,.98,0,1.47,0,.129,0,.161-.051.159-.171C962.309,161.424,962.313,161.126,962.313,160.827Zm1.094-.014c0,.31,0,.619,0,.929,0,.092.018.15.127.149.512,0,1.025,0,1.537,0,.071,0,.112-.023.122-.1q.114-.937.234-1.874c.016-.129-.037-.166-.159-.165-.563,0-1.125.007-1.688,0-.146,0-.179.055-.176.189C963.412,160.228,963.406,160.521,963.407,160.814ZM958.731,163c-.229,0-.458.006-.686,0-.134-.005-.162.039-.129.167q.232.908.449,1.819a.176.176,0,0,0,.209.158c.345-.007.691,0,1.037,0,.2,0,.215-.018.191-.211-.074-.6-.154-1.194-.224-1.792-.013-.112-.059-.141-.16-.139C959.188,163,958.959,163,958.731,163Zm8.261,0c-.218,0-.435.006-.652,0-.126,0-.2.021-.2.17a2.717,2.717,0,0,1-.041.334c-.061.48-.12.96-.183,1.439-.018.14.014.207.174.2.356-.011.713-.007,1.07,0a.161.161,0,0,0,.186-.144q.225-.935.464-1.866c.031-.122-.021-.134-.115-.133C967.459,163,967.225,163,966.991,163Zm-4.679,1.088c0-.3-.006-.6,0-.9,0-.144-.034-.2-.186-.2-.417.009-.836.011-1.253,0-.169-.005-.2.065-.18.211.078.6.155,1.193.225,1.79.013.105.047.146.154.145q.543-.008,1.086,0c.12,0,.154-.046.152-.16C962.309,164.681,962.313,164.382,962.313,164.084Zm1.094-.025c0,.31,0,.62,0,.929,0,.092.017.151.127.15.379,0,.757,0,1.136,0,.071,0,.113-.022.123-.1q.114-.938.233-1.874c.017-.128-.034-.168-.158-.166q-.652.008-1.3,0c-.13,0-.161.051-.159.17C963.41,163.463,963.407,163.761,963.407,164.059Z" fill="#fff"/>
    <path id="Контур_9672" data-name="Контур 9672" d="M965.26,184.489a1.094,1.094,0,1,1,1.092-1.1A1.073,1.073,0,0,1,965.26,184.489Z" transform="translate(-5.689 -12.837)" fill="#fff"/>
    <path id="Контур_9673" data-name="Контур 9673" d="M978.323,182.3a1.094,1.094,0,1,1-1.094,1.093A1.077,1.077,0,0,1,978.323,182.3Z" transform="translate(-12.173 -12.838)" fill="#fff"/>
  </g>
</svg>
