<svg id="Фигура_11_копия_2" data-name="Фигура 11 копия 2" xmlns="http://www.w3.org/2000/svg" width="14.928" height="15.125" viewBox="0 0 14.928 15.125">
  <path id="Фигура_11_копия_2-2" data-name="Фигура 11 копия 2" d="M1487.243,108.834h-4.5a2.868,2.868,0,0,1-2.854-2.2,3.045,3.045,0,0,1-.094-.75V96.666a2.891,2.891,0,0,1,2.481-2.929,3.02,3.02,0,0,1,.477-.027h9a2.886,2.886,0,0,1,2.886,2.271,3.183,3.183,0,0,1,.073.7q.016,4.585.01,9.169a2.917,2.917,0,0,1-2.5,2.955,3.29,3.29,0,0,1-.529.026C1490.2,108.835,1488.727,108.834,1487.243,108.834Zm-6-9.1v6.1a1.433,1.433,0,0,0,1.505,1.527h9a1.442,1.442,0,0,0,1.505-1.541V99.742H1491.1c.073.461.166.911.208,1.365a3.3,3.3,0,0,1-.166,1.382,3.944,3.944,0,0,1-.612,1.228,4.053,4.053,0,0,1-7.089-.957,4.112,4.112,0,0,1,.01-3.024h-2.211Zm8.625,1.536a2.674,2.674,0,1,0,0,.005Zm3.1-5.806h-2.512v2.541h2.512" transform="translate(-1479.789 -93.709)" fill="#247abe" fill-rule="evenodd"/>
</svg>
