<svg id="Фигура_22" data-name="Фигура 22" xmlns="http://www.w3.org/2000/svg" width="14.236" height="15.125" viewBox="0 0 14.236 15.125">
  <path id="Фигура_22-2" data-name="Фигура 22" d="M1323.04,94a14.4,14.4,0,0,1,4.135.56,3.777,3.777,0,0,1,2.727,2.885,11.778,11.778,0,0,1-.036,5.787,3.613,3.613,0,0,1-2.664,2.723,14.559,14.559,0,0,1-4.75.544.822.822,0,0,0-.713.345q-.882,1.018-1.791,2.013a.439.439,0,0,1-.517.249.534.534,0,0,1-.151-.529c0-.663-.009-1.328,0-1.991a.587.587,0,0,0-.419-.655,4.1,4.1,0,0,1-2.7-3.5,13.015,13.015,0,0,1,.036-4.2c.374-2.346,1.613-3.543,4.063-3.994A12.238,12.238,0,0,1,1323.04,94Zm4.17,9.385a.6.6,0,0,0-.2-.467,6.461,6.461,0,0,0-1.586-1.075.69.69,0,0,0-.9.241.98.98,0,0,1-1.355.254,4.3,4.3,0,0,1-2.13-2.139.777.777,0,0,1,.25-1.149.713.713,0,0,0,.187-1.1,11.311,11.311,0,0,0-.731-1.026c-.508-.6-.748-.654-1.239-.344-.864.552-1.132,1.046-.873,1.724a10.586,10.586,0,0,0,6.763,6.416,1.666,1.666,0,0,0,1.809-1.334Zm-3.8-7.459c-.143.047-.428-.113-.428.167-.009.209.268.131.419.165.125.029.258.037.383.062a3.837,3.837,0,0,1,3.359,3.653c.018.1.036.193.053.287.036.11.062.249.2.223a.2.2,0,0,0,.125-.235,4.251,4.251,0,0,0-.027-.585,4.341,4.341,0,0,0-4.09-3.737Zm.232,1.131c-.08.005-.294-.081-.321.118s.187.188.33.216c.125.026.258.038.383.07a2.45,2.45,0,0,1,1.969,2.228c.027.174-.036.471.231.429.241-.037.169-.31.152-.495a2.876,2.876,0,0,0-2.745-2.565Z" transform="translate(-1316.009 -93.995)" fill="#247abe" fill-rule="evenodd"/>
</svg>
