<svg id="Фигура_21" data-name="Фигура 21" xmlns="http://www.w3.org/2000/svg" width="15.068" height="15.125" viewBox="0 0 15.068 15.125">
  <path id="Фигура_21-2" data-name="Фигура 21" d="M1364.113,102.591a7.55,7.55,0,0,1-11.249,6.57.991.991,0,0,0-.9-.092c-.616.216-1.243.415-1.859.617-.432.138-.551-.014-.4-.427.173-.519.324-1.049.519-1.557a1.285,1.285,0,0,0-.119-1.244A7.583,7.583,0,0,1,1356.744,95a7.456,7.456,0,0,1,7.37,7.587Zm-11.767-2a2.044,2.044,0,0,0,.13.808,8.5,8.5,0,0,0,6.278,5.31,2.1,2.1,0,0,0,1.988-.756.973.973,0,0,0-.313-1.637c-.173-.085-.346-.171-.508-.254-.929-.451-.951-.467-1.588.334a.756.756,0,0,1-1.08.239,5.9,5.9,0,0,1-2.561-2.269.606.606,0,0,1,.043-.851,1.156,1.156,0,0,0,.184-1.591c-.151-.275-.249-.583-.378-.864a.821.821,0,0,0-1.34-.3,2.386,2.386,0,0,0-.854,1.832Z" transform="translate(-1349.046 -95.003)" fill="#247abe" fill-rule="evenodd"/>
</svg>
