<svg id="Фигура_10_копия_2" data-name="Фигура 10 копия 2" xmlns="http://www.w3.org/2000/svg" width="8.974" height="15.125" viewBox="0 0 8.974 15.125">
  <path id="Фигура_10_копия_2-2" data-name="Фигура 10 копия 2" d="M1450.34,101.692v-.413c.035-.088.062-.177.1-.265a.917.917,0,0,1,.742-.557,1.038,1.038,0,0,1,.707.2c.15.095.292.208.442.3a4.818,4.818,0,0,0,3.259.624,4.29,4.29,0,0,0,2.058-.838,1.412,1.412,0,0,1,.494-.251.9.9,0,0,1,1.033.429,2.451,2.451,0,0,1,.141.353v.383a1.129,1.129,0,0,1-.344.5,5.14,5.14,0,0,1-2.579,1.247c-.247.046-.5.088-.768.131.035.039.053.062.071.082l1.537,1.55,1.139,1.158a.883.883,0,0,1,.256.905.959.959,0,0,1-1.634.451c-.671-.7-1.351-1.373-2.022-2.064-.1-.105-.159-.11-.265,0-.662.682-1.325,1.356-1.987,2.031a1.115,1.115,0,0,1-.442.3,1.037,1.037,0,0,1-1.245-.779.96.96,0,0,1,.282-.856c.875-.878,1.74-1.759,2.605-2.64a.227.227,0,0,0,.106-.14.255.255,0,0,0-.053-.018c-.115-.019-.23-.036-.344-.052a5.355,5.355,0,0,1-2.738-1.137,1.708,1.708,0,0,1-.548-.64Zm4.019-8.832h.936a.408.408,0,0,0,.053.015,3.86,3.86,0,0,1,3.206,4.613,3.807,3.807,0,1,1-4.884-4.47,4.266,4.266,0,0,1,.689-.155ZM1453,96.686a1.833,1.833,0,1,0,3.665.006,1.887,1.887,0,0,0-1.837-1.878A1.86,1.86,0,0,0,1453,96.693Z" transform="translate(-1450.34 -92.86)" fill="#247abe" fill-rule="evenodd"/>
</svg>
