<svg id="Icon_awesome-youtube" data-name="Icon awesome-youtube" xmlns="http://www.w3.org/2000/svg" width="19.537" height="13.737" viewBox="0 0 19.537 13.737">
  <path id="Icon_awesome-youtube-2" data-name="Icon awesome-youtube" d="M20.179,6.649a2.455,2.455,0,0,0-1.727-1.738C16.928,4.5,10.818,4.5,10.818,4.5s-6.109,0-7.633.411A2.455,2.455,0,0,0,1.458,6.649a25.752,25.752,0,0,0-.408,4.733,25.752,25.752,0,0,0,.408,4.733,2.418,2.418,0,0,0,1.727,1.711c1.524.411,7.633.411,7.633.411s6.109,0,7.633-.411a2.418,2.418,0,0,0,1.727-1.711,25.752,25.752,0,0,0,.408-4.733,25.752,25.752,0,0,0-.408-4.733ZM8.82,14.287V8.477l5.106,2.9-5.106,2.9Z" transform="translate(-1.05 -4.5)" fill="#247abe"/>
</svg>
