<svg id="Фигура_23" data-name="Фигура 23" xmlns="http://www.w3.org/2000/svg" width="16.142" height="14.125" viewBox="0 0 16.142 14.125">
  <path id="Фигура_23-2" data-name="Фигура 23" d="M1298.265,95h.787c.081,0,.091.015.091.094-.01.347,0,.7,0,1.043-.111.5-.222,1-.323,1.5l-2.149,10.575a1.686,1.686,0,0,1-.2.58.638.638,0,0,1-.726.312,1.519,1.519,0,0,1-.6-.3c-1.13-.867-2.25-1.728-3.37-2.6a.21.21,0,0,0-.333.02c-.484.5-.968,1-1.473,1.489a1.648,1.648,0,0,1-.605.486c-.252.087-.3.036-.283-.23l.091-1.385c.05-.706.1-1.423.141-2.134a.368.368,0,0,1,.1-.226c.111-.1.212-.2.313-.3l3.148-2.965c.676-.633,1.342-1.264,2.018-1.9q.651-.613,1.3-1.231a.184.184,0,0,0,.091-.231.2.2,0,0,0-.252-.061,1.132,1.132,0,0,0-.394.2l-5.206,3.421-3.027,1.989a.33.33,0,0,1-.3.066q-1.786-.59-3.572-1.174a.865.865,0,0,1-.535-.421v-.219a1.587,1.587,0,0,1,.868-.622q4.873-1.962,9.766-3.925Z" transform="translate(-1283 -95)" fill="#247abe" fill-rule="evenodd"/>
</svg>
