<svg id="Фигура_20" data-name="Фигура 20" xmlns="http://www.w3.org/2000/svg" width="17.267" height="15.125" viewBox="0 0 17.267 15.125">
  <path id="Фигура_20-2" data-name="Фигура 20" d="M1387.213,106.839a3.7,3.7,0,0,1-3.335-2.654,3.314,3.314,0,0,0,1.576-.067,3.861,3.861,0,0,1-2.828-3.8,3.518,3.518,0,0,0,1.63.472,4,4,0,0,1-1.112-5.081,9.989,9.989,0,0,0,7.338,3.982c-.022-.23-.054-.432-.065-.633a3.734,3.734,0,0,1,2.989-4.016,3.294,3.294,0,0,1,3.011,1.015.3.3,0,0,0,.334.1,6.989,6.989,0,0,0,1.867-.763c.054-.029.1-.056.183-.1a3.353,3.353,0,0,1-.594,1.17c-.27.324-.583.616-.863.908a6.654,6.654,0,0,0,1.91-.565.713.713,0,0,1-.086.157,7.41,7.41,0,0,1-1.532,1.687.294.294,0,0,0-.119.288c.119,4.111-2.137,8.633-6.216,10.4a9.7,9.7,0,0,1-4.532.755,9.533,9.533,0,0,1-4.6-1.54,2.2,2.2,0,0,1-.183-.126,6.906,6.906,0,0,0,5.223-1.586Z" transform="translate(-1381.99 -94.993)" fill="#247abe" fill-rule="evenodd"/>
</svg>
