<svg id="Фигура_9_копия_2" data-name="Фигура 9 копия 2" xmlns="http://www.w3.org/2000/svg" width="21.891" height="14.125" viewBox="0 0 21.891 14.125">
  <path id="Фигура_9_копия_2-2" data-name="Фигура 9 копия 2" d="M1416.11,96.206c.4,0,.8.012,1.2,0a.967.967,0,0,1,.9.515q.442.687.848,1.388c.612,1.034,1.166,2.1,1.8,3.11a5.745,5.745,0,0,0,.789,1.039c.342.323.577.268.754-.179a6.155,6.155,0,0,0,.294-1.671c.059-.824.047-1.659.047-2.49a.745.745,0,0,0-.824-.886c-.141,0-.294.007-.448.006-.059,0-.141.027-.165-.042a.184.184,0,0,1,.071-.185,4.165,4.165,0,0,1,2.273-1.313,10.35,10.35,0,0,1,1.719-.052c.271-.008.542,0,.824,0a.825.825,0,0,1,.86.669,4.744,4.744,0,0,1,.153,1.521c0,1.147-.117,2.293-.023,3.44a3.554,3.554,0,0,0,.212,1,.521.521,0,0,0,.978.118,2.582,2.582,0,0,0,.318-.643,30.1,30.1,0,0,1,2.732-5.231.85.85,0,0,1,.754-.366,8.1,8.1,0,0,1,3.227.51,1.658,1.658,0,0,1,.177.088.416.416,0,0,1,.259.589,6,6,0,0,1-.683,1.531c-.659,1.189-1.472,2.273-2.214,3.4a6.148,6.148,0,0,0-.436.72.75.75,0,0,0,.224,1.178,10.867,10.867,0,0,1,1.531,1.487,12.308,12.308,0,0,1,1.378,1.785,1.511,1.511,0,0,1-.118,1.8,1.49,1.49,0,0,1-1.107.509c-.836.013-1.672,0-2.52,0a.824.824,0,0,1-.6-.235c-.235-.236-.471-.471-.695-.707a16.749,16.749,0,0,0-1.625-1.6c-.129-.1-.247-.187-.376-.278a1.117,1.117,0,0,0-1.343-.127,1.656,1.656,0,0,0-.836,1.413,3.993,3.993,0,0,1-.094.919.706.706,0,0,1-.765.611,7.381,7.381,0,0,1-2.6-.316,7.708,7.708,0,0,1-2.85-1.875,22.615,22.615,0,0,1-5.276-8.159c-.247-.646-.495-1.3-.742-1.941-.224-.6-.059-.942.542-1,.495-.042.989-.008,1.484-.008v-.046Z" transform="translate(-1413.989 -95.432)" fill="#247abe" fill-rule="evenodd"/>
</svg>
