<svg xmlns="http://www.w3.org/2000/svg" width="11.082" height="8.976" viewBox="0 0 11.082 8.976">
  <g id="Сгруппировать_122" data-name="Сгруппировать 122" transform="translate(-1566.041 -452.018)">
    <path id="Контур_9688" data-name="Контур 9688" d="M1577.123,453.346a1.263,1.263,0,0,1-.35.808l-4.048,4.324c-.752.8-1.509,1.6-2.256,2.41-.114.123-.186.15-.317.019-1.238-1.246-2.488-2.48-3.72-3.731a1.263,1.263,0,1,1,1.8-1.769c.609.6,1.219,1.21,1.818,1.824.149.152.232.158.382,0q2.227-2.389,4.47-4.764a1.244,1.244,0,0,1,1.765-.145A1.313,1.313,0,0,1,1577.123,453.346Z" fill="#292929"/>
  </g>
</svg>
