<svg xmlns="http://www.w3.org/2000/svg" width="31.71" height="31.71" viewBox="0 0 31.71 31.71">
  <g id="Сгруппировать_78" data-name="Сгруппировать 78" transform="translate(322.121 -480.018) rotate(45)">
    <path id="Контур_9641" data-name="Контур 9641" d="M122.861,567.943v-1.489a1.8,1.8,0,0,0,.041-.209,10.783,10.783,0,0,1,1.871-5.3,11.057,11.057,0,0,1,7.367-4.789c.393-.072.792-.114,1.188-.17h1.489a1.717,1.717,0,0,0,.212.041,10.03,10.03,0,0,1,3.054.7,11.091,11.091,0,0,1,7.029,8.535c.078.391.115.791.171,1.186v1.489a1.707,1.707,0,0,0-.042.211,9.971,9.971,0,0,1-.71,3.075A11.1,11.1,0,0,1,136,578.239c-.391.078-.79.115-1.186.171h-1.489a1.47,1.47,0,0,0-.19-.039,10.751,10.751,0,0,1-5.064-1.707,11.065,11.065,0,0,1-5.039-7.514C122.96,568.75,122.918,568.345,122.861,567.943Zm1.4-.77a9.808,9.808,0,1,0,9.846-9.784A9.835,9.835,0,0,0,124.262,567.173Z" transform="translate(0)" fill="#fff"/>
    <path id="Контур_9642" data-name="Контур 9642" d="M139.139,571.278c.611.608,1.206,1.2,1.8,1.79q.953.951,1.9,1.905a.678.678,0,0,1,.141.823.639.639,0,0,1-.7.37,1.286,1.286,0,0,1-.546-.325c-1.159-1.142-2.306-2.3-3.457-3.447-.035-.036-.073-.07-.123-.118-.061.057-.119.109-.174.163q-1.742,1.741-3.482,3.484a.723.723,0,0,1-.731.234.7.7,0,0,1-.348-1.135c.1-.116.214-.22.322-.328q1.617-1.618,3.237-3.234a1.893,1.893,0,0,1,.228-.164c-.455-.446-.867-.846-1.274-1.251q-1.209-1.2-2.415-2.414a.708.708,0,1,1,.99-1l3.544,3.545c.03.03.063.057.1.093.064-.061.123-.114.178-.169q1.742-1.741,3.483-3.482a.7.7,0,0,1,1.078.9c-.084.1-.182.189-.275.282Z" transform="translate(-4.079 -4.076)" fill="#fff"/>
  </g>
</svg>
