<svg xmlns="http://www.w3.org/2000/svg" width="67" height="30.33" viewBox="0 0 67 30.33">
  <g id="Сгруппировать_85" data-name="Сгруппировать 85" transform="translate(0 0)">
    <g id="Сгруппировать_81" data-name="Сгруппировать 81" transform="translate(0 0)">
      <path id="Контур_9643" data-name="Контур 9643" d="M177.024,780.093q0,3.765,0,7.53a.229.229,0,0,1-.131.233q-3.335,1.894-6.665,3.8l-6.308,3.6a.171.171,0,0,1-.195.012q-2.1-1.18-4.2-2.352a.174.174,0,0,1-.1-.176q0-2.27.006-4.54c0-.135.01-.14.129-.073q2.08,1.18,4.16,2.363a.242.242,0,0,0,.277,0q3.131-1.777,6.267-3.548,1.292-.73,2.584-1.461a.158.158,0,0,0,.1-.16c-.005-.174,0-.347,0-.521.017-3.23.013-6.461.017-9.692a.2.2,0,0,0-.116-.2c-.955-.5-1.883-1.05-2.822-1.579q-2.466-1.39-4.928-2.787c-.379-.215-.759-.427-1.135-.645a.176.176,0,0,0-.2,0q-2.95,1.664-5.9,3.325l-2.525,1.419c-.282.159-.286.158-.281.482.027,1.782,0,3.564.023,5.346.019,1.7,0,3.407.021,5.111.014,1.136.007,2.271.008,3.408,0,.441-.008.883-.012,1.325,0,.116-.009.12-.114.062q-2.112-1.166-4.226-2.33a.243.243,0,0,1-.145-.245c-.019-1.537,0-3.074-.021-4.611-.016-1.34,0-2.68-.019-4.019-.02-1.421,0-2.843-.022-4.264-.01-.776,0-1.551-.016-2.326a.211.211,0,0,1,.122-.217q1.9-1.061,3.788-2.129l4.8-2.7q2.253-1.269,4.506-2.537a.177.177,0,0,1,.2,0q2.8,1.59,5.609,3.178l7.067,4c.109.062.217.126.328.186a.135.135,0,0,1,.08.14c0,.037,0,.075,0,.112Z" transform="translate(-150.527 -764.961)" fill="#fff"/>
      <g id="Сгруппировать_80" data-name="Сгруппировать 80" transform="translate(6.422 10.249)">
        <path id="Контур_9644" data-name="Контур 9644" d="M173.192,799.36a6.25,6.25,0,0,1-1.6.482l.877,1.8a5.409,5.409,0,0,0,2.023-1.524,3.82,3.82,0,0,0,.531-2.152A6.923,6.923,0,0,1,173.192,799.36Z" transform="translate(-166.334 -789.91)" fill="#fff"/>
        <path id="Контур_9645" data-name="Контур 9645" d="M165.68,788.367a3.819,3.819,0,0,0-2.129.614,5.409,5.409,0,0,0-1.445,2.081l1.829.806a6.255,6.255,0,0,1,.419-1.613A6.924,6.924,0,0,1,165.68,788.367Z" transform="translate(-162.107 -785.635)" fill="#fff"/>
        <path id="Контур_9646" data-name="Контур 9646" d="M175.758,783.464v-.022l-.022.022a10.8,10.8,0,0,0-5.3,1.66,12.588,12.588,0,0,0-3.245,4.243l1.557,1.439,0,0,1.406,1.5a12.5,12.5,0,0,0,4.116-3.35,11.147,11.147,0,0,0,1.492-5.46l.021-.036Zm-2.492,5.584a6.621,6.621,0,0,1-3.707,1.909,9.412,9.412,0,0,0,3.6-2.458,11.379,11.379,0,0,0,2.1-3.73A9.724,9.724,0,0,1,173.266,789.047Z" transform="translate(-164.371 -783.442)" fill="#fff"/>
      </g>
    </g>
    <g id="Сгруппировать_84" data-name="Сгруппировать 84" transform="translate(28.87 7.764)">
      <g id="Сгруппировать_82" data-name="Сгруппировать 82" transform="translate(0 8.311)">
        <path id="Контур_9647" data-name="Контур 9647" d="M205.384,795.53v.768a1.277,1.277,0,0,1-1.407,1.46h-.446v2.22h-.944V794.07h1.39A1.277,1.277,0,0,1,205.384,795.53Zm-1.853-.616v2h.446c.3,0,.464-.135.464-.557v-.886c0-.422-.163-.557-.464-.557Z" transform="translate(-202.587 -794.002)" fill="#fff"/>
        <path id="Контур_9648" data-name="Контур 9648" d="M210.393,799.978a1.8,1.8,0,0,1-.085-.726v-.928c0-.549-.189-.751-.618-.751h-.326v2.406h-.944V794.07h1.424c.978,0,1.4.448,1.4,1.359v.464a1.172,1.172,0,0,1-.618,1.2c.472.194.627.642.627,1.257v.912a1.717,1.717,0,0,0,.1.718Zm-1.029-5.064v1.815h.369c.352,0,.566-.152.566-.624v-.582c0-.422-.145-.608-.48-.608Z" transform="translate(-205.185 -794.002)" fill="#fff"/>
        <path id="Контур_9649" data-name="Контур 9649" d="M217.493,799.978h-.952l-.163-1.072H215.22l-.163,1.072h-.867l.961-5.908h1.381ZM215.34,798.1h.909l-.455-2.988Z" transform="translate(-207.756 -794.002)" fill="#fff"/>
        <path id="Контур_9650" data-name="Контур 9650" d="M222.626,796.83l-.343,3.148h-1.3l-.669-5.908h.918l.506,4.659.455-4.659h.91l.471,4.693.489-4.693h.824l-.669,5.908h-1.253Z" transform="translate(-210.485 -794.002)" fill="#fff"/>
        <path id="Контур_9651" data-name="Контур 9651" d="M230.358,796.56h1.3v.844h-1.3v1.73h1.63v.844h-2.575V794.07h2.575v.844h-1.63Z" transform="translate(-214.537 -794.002)" fill="#fff"/>
        <path id="Контур_9652" data-name="Контур 9652" d="M237.931,795.429v.211a1.155,1.155,0,0,1-.61,1.19,1.192,1.192,0,0,1,.7,1.266v.481a1.267,1.267,0,0,1-1.433,1.4h-1.485V794.07h1.425C237.51,794.07,237.931,794.518,237.931,795.429Zm-1.879-.515v1.562h.369c.352,0,.566-.152.566-.624v-.329c0-.422-.145-.608-.481-.608Zm0,2.406v1.814h.541c.317,0,.489-.144.489-.582v-.515c0-.549-.18-.718-.609-.718Z" transform="translate(-217.073 -794.002)" fill="#fff"/>
        <path id="Контур_9653" data-name="Контур 9653" d="M244.653,794.07v4.558c0,.422.189.574.489.574s.489-.152.489-.574V794.07h.892v4.5a1.409,1.409,0,1,1-2.814,0v-4.5Z" transform="translate(-220.905 -794.002)" fill="#fff"/>
        <path id="Контур_9654" data-name="Контур 9654" d="M250.778,795.7v4.279h-.85V794.07h1.185l.969,3.536V794.07h.841v5.908h-.969Z" transform="translate(-223.675 -794.002)" fill="#fff"/>
        <path id="Контур_9655" data-name="Контур 9655" d="M256.549,794.07h.944v5.908h-.944Z" transform="translate(-226.624 -794.002)" fill="#fff"/>
        <path id="Контур_9656" data-name="Контур 9656" d="M259.349,795.434a1.434,1.434,0,1,1,2.866,0v3.072a1.434,1.434,0,1,1-2.866,0Zm.944,3.131c0,.422.189.583.489.583s.489-.161.489-.583v-3.19c0-.422-.189-.583-.489-.583s-.489.161-.489.583Z" transform="translate(-227.872 -793.948)" fill="#fff"/>
        <path id="Контур_9657" data-name="Контур 9657" d="M266.449,795.7v4.279h-.85V794.07h1.185l.969,3.536V794.07h.841v5.908h-.969Z" transform="translate(-230.656 -794.002)" fill="#fff"/>
      </g>
      <g id="Сгруппировать_83" data-name="Сгруппировать 83" transform="translate(0.023)">
        <path id="Контур_9658" data-name="Контур 9658" d="M205.5,782.609l-.427,3.983h-1.613l-.833-7.476h1.143l.63,5.9.566-5.9H206.1l.587,5.938.609-5.938h1.025l-.833,7.476H205.93Z" transform="translate(-202.629 -779.03)" fill="#fff"/>
        <path id="Контур_9659" data-name="Контур 9659" d="M215.129,782.266h1.613v1.068h-1.613v2.189h2.03v1.068h-3.2v-7.476h3.2v1.068h-2.03Z" transform="translate(-207.674 -779.03)" fill="#fff"/>
        <path id="Контур_9660" data-name="Контур 9660" d="M224.555,780.835v.267a1.469,1.469,0,0,1-.759,1.506,1.511,1.511,0,0,1,.876,1.6v.608a1.589,1.589,0,0,1-1.783,1.773h-1.848v-7.476h1.773C224.032,779.116,224.555,779.682,224.555,780.835Zm-2.34-.651v1.976h.46c.438,0,.7-.192.7-.791v-.417c0-.533-.182-.769-.6-.769Zm0,3.043v2.3h.673c.4,0,.609-.181.609-.737v-.651c0-.695-.225-.908-.759-.908Z" transform="translate(-210.831 -779.03)" fill="#fff"/>
        <path id="Контур_9661" data-name="Контур 9661" d="M233.28,778.961c1.143,0,1.73.684,1.73,1.88v.235H233.9v-.31c0-.534-.214-.737-.587-.737s-.587.2-.587.737c0,1.538,2.3,1.827,2.3,3.962,0,1.2-.6,1.88-1.751,1.88s-1.752-.684-1.752-1.88v-.459h1.111v.534c0,.535.235.726.609.726s.609-.192.609-.726c0-1.538-2.3-1.826-2.3-3.962C231.55,779.645,232.138,778.961,233.28,778.961Z" transform="translate(-215.498 -778.961)" fill="#fff"/>
        <path id="Контур_9662" data-name="Контур 9662" d="M238.432,779.116h3.631v1.068h-1.228v6.408H239.66v-6.408h-1.228Z" transform="translate(-218.578 -779.03)" fill="#fff"/>
        <path id="Контур_9663" data-name="Контур 9663" d="M246.984,779.116v5.767c0,.534.235.726.608.726s.609-.192.609-.726v-5.767h1.111v5.692c0,1.2-.6,1.879-1.752,1.879s-1.751-.683-1.751-1.879v-5.692Z" transform="translate(-221.864 -779.03)" fill="#fff"/>
        <path id="Контур_9664" data-name="Контур 9664" d="M253.571,779.116h1.858c1.175,0,1.751.652,1.751,1.848v3.78c0,1.2-.577,1.848-1.751,1.848h-1.858Zm1.175,1.068v5.34h.662c.374,0,.6-.192.6-.726V780.91c0-.534-.225-.726-.6-.726Z" transform="translate(-225.321 -779.03)" fill="#fff"/>
        <path id="Контур_9665" data-name="Контур 9665" d="M261.428,779.116H262.6v7.476h-1.174Z" transform="translate(-228.821 -779.03)" fill="#fff"/>
        <path id="Контур_9666" data-name="Контур 9666" d="M264.913,780.841a1.786,1.786,0,1,1,3.567,0v3.887a1.786,1.786,0,1,1-3.567,0Zm1.175,3.962c0,.535.235.737.609.737s.608-.2.608-.737v-4.037c0-.534-.235-.737-.608-.737s-.609.2-.609.737Z" transform="translate(-230.374 -778.961)" fill="#fff"/>
      </g>
    </g>
  </g>
</svg>
